<svg width="256" height="256" viewBox="0 0 256 256" fill="none" xmlns="http://www.w3.org/2000/svg">
<path d="M1.0332 0.80365H255.471V255.549H1.0332V0.80365Z" fill="#EDEDED"/>
<path d="M128.249 255.549V0.810059" stroke="black" stroke-width="1.27292"/>
<path d="M1.0332 128.179H255.464" stroke="black" stroke-width="1.27292"/>
<path d="M1.0235 124.543V131.815" stroke="black" stroke-width="0.545537"/>
<path d="M124.62 0.809845H131.883" stroke="black" stroke-width="0.545537"/>
<path d="M124.62 255.596H131.883" stroke="black" stroke-width="0.545537"/>
<path d="M255.454 124.543V131.815" stroke="black" stroke-width="0.545537"/>
<path d="M124.676 64.7451H131.939" stroke="black" stroke-width="0.545537"/>
<path d="M124.676 191.614H131.939" stroke="black" stroke-width="0.545537"/>
<path d="M191.812 124.845V132.117" stroke="black" stroke-width="0.545537"/>
<path d="M64.692 124.845V132.117" stroke="black" stroke-width="0.545537"/>
<path d="M124.676 32.9017H131.939" stroke="black" stroke-width="0.545537"/>
<path d="M124.676 159.77H131.939" stroke="black" stroke-width="0.545537"/>
<path d="M223.617 124.845V132.117" stroke="black" stroke-width="0.545537"/>
<path d="M96.4969 124.845V132.117" stroke="black" stroke-width="0.545537"/>
<path d="M124.676 96.5889H131.939" stroke="black" stroke-width="0.545537"/>
<path d="M124.676 223.457H131.939" stroke="black" stroke-width="0.545537"/>
<path d="M160.007 124.845V132.117" stroke="black" stroke-width="0.545537"/>
<path d="M32.8866 124.845V132.117" stroke="black" stroke-width="0.545537"/>
</svg>
