<svg width="255" height="255" viewBox="0 0 255 255" fill="none" xmlns="http://www.w3.org/2000/svg">
<path d="M0.0819092 0.378998L1.37994 1.677L1.76593 1.291L0.467957 -0.0059967L0.0819092 0.378998ZM3.97491 4.272L6.57092 6.868L6.95593 6.482L4.36096 3.887L3.97491 4.272ZM9.16595 9.463L11.7609 12.058L12.1469 11.673L9.55194 9.077L9.16595 9.463ZM14.3569 14.654L16.952 17.249L17.338 16.863L14.7419 14.268L14.3569 14.654ZM19.5469 19.844L22.1429 22.439L22.528 22.054L19.9329 19.459L19.5469 19.844ZM24.7379 25.035L27.3329 27.63L27.7189 27.245L25.124 24.649L24.7379 25.035ZM29.929 30.226L32.5239 32.821L32.9099 32.435L30.314 29.84L29.929 30.226ZM35.119 35.416L37.715 38.011L38.0999 37.626L35.5049 35.031L35.119 35.416ZM40.3099 40.607L42.905 43.202L43.291 42.816L40.6949 40.221L40.3099 40.607ZM45.5009 45.797L48.0959 48.393L48.4819 48.007L45.8859 45.412L45.5009 45.797ZM50.6909 50.988L53.2859 53.583L53.6719 53.198L51.077 50.603L50.6909 50.988ZM55.882 56.179L58.4799 58.774L58.8599 58.388L56.267 55.793L55.882 56.179ZM61.0699 61.369L63.6699 63.964L64.0499 63.579L61.46 60.984L61.0699 61.369ZM66.2599 66.56L68.8599 69.155L69.2399 68.77L66.65 66.174L66.2599 66.56ZM71.45 71.751L74.0499 74.346L74.4299 73.96L71.84 71.365L71.45 71.751ZM76.64 76.941L79.2399 79.536L79.6299 79.151L77.03 76.556L76.64 76.941ZM81.8299 82.132L84.43 84.727L84.8199 84.342L82.2199 81.746L81.8299 82.132ZM87.03 87.323L89.6199 89.918L90.0099 89.532L87.41 86.937L87.03 87.323ZM92.2199 92.513L94.81 95.108L95.1999 94.723L92.5999 92.127L92.2199 92.513ZM97.41 97.704L99.9999 100.299L100.39 99.913L97.79 97.318L97.41 97.704ZM102.6 102.894L105.19 105.49L105.58 105.104L102.98 102.508L102.6 102.894ZM107.79 108.085L110.38 110.68L110.77 110.295L108.17 107.699L107.79 108.085ZM112.98 113.276L115.57 115.871L115.96 115.485L113.36 112.89L112.98 113.276ZM118.17 118.466L120.76 121.061L121.15 120.676L118.55 118.08L118.17 118.466ZM123.36 123.657L125.96 126.252L126.34 125.867L123.75 123.271L123.36 123.657ZM128.55 128.847L131.15 131.443L131.53 131.057L128.94 128.462L128.55 128.847ZM133.74 134.038L136.34 136.633L136.72 136.248L134.13 133.652L133.74 134.038ZM138.93 139.228L141.53 141.824L141.91 141.439L139.32 138.843L138.93 139.228ZM144.12 144.419L146.72 147.015L147.1 146.629L144.51 144.034L144.12 144.419ZM149.31 149.61L151.91 152.205L152.29 151.82L149.7 149.224L149.31 149.61ZM154.5 154.8L157.1 157.396L157.48 157.011L154.89 154.415L154.5 154.8ZM159.69 159.991L162.29 162.587L162.68 162.201L160.08 159.606L159.69 159.991ZM164.89 165.182L167.48 167.777L167.87 167.392L165.27 164.796L164.89 165.182ZM170.08 170.372L172.67 172.968L173.06 172.582L170.46 169.987L170.08 170.372ZM175.27 175.563L177.86 178.159L178.25 177.773L175.65 175.178L175.27 175.563ZM180.46 180.754L183.05 183.349L183.44 182.964L180.84 180.368L180.46 180.754ZM185.65 185.944L188.24 188.54L188.63 188.154L186.03 185.559L185.65 185.944ZM190.84 191.135L193.43 193.731L193.82 193.345L191.22 190.75L190.84 191.135ZM196.03 196.326L198.62 198.921L199.01 198.536L196.41 195.94L196.03 196.326ZM201.22 201.516L203.81 204.112L204.2 203.726L201.61 201.131L201.22 201.516ZM206.41 206.707L209.01 209.302L209.39 208.917L206.8 206.321L206.41 206.707ZM211.6 211.898L214.2 214.493L214.58 214.108L211.99 211.512L211.6 211.898ZM216.79 217.088L219.39 219.684L219.77 219.298L217.18 216.703L216.79 217.088ZM221.98 222.279L224.58 224.874L224.96 224.489L222.37 221.893L221.98 222.279ZM227.17 227.469L229.77 230.065L230.15 229.679L227.56 227.084L227.17 227.469ZM232.36 232.66L234.96 235.256L235.34 234.87L232.75 232.275L232.36 232.66ZM237.55 237.851L240.15 240.446L240.53 240.061L237.94 237.465L237.55 237.851ZM242.74 243.041L245.34 245.637L245.73 245.251L243.13 242.656L242.74 243.041ZM247.94 248.232L250.53 250.827L250.92 250.442L248.32 247.846L247.94 248.232ZM253.13 253.423L254.42 254.72L254.81 254.335L253.51 253.037L253.13 253.423Z" fill="#8A8A8A"/>
<path d="M0.38501 254.909L1.65802 253.636L1.27197 253.251L0 254.523L0.38501 254.909ZM4.203 251.091L6.74799 248.546L6.36298 248.16L3.81799 250.705L4.203 251.091ZM9.29401 246.001L11.839 243.455L11.453 243.07L8.90802 245.615L9.29401 246.001ZM14.384 240.91L16.93 238.365L16.544 237.979L13.999 240.525L14.384 240.91ZM19.475 235.82L22.02 233.274L21.635 232.889L19.089 235.434L19.475 235.82ZM24.565 230.729L27.111 228.184L26.725 227.799L24.18 230.344L24.565 230.729ZM29.656 225.639L32.201 223.094L31.816 222.708L29.27 225.254L29.656 225.639ZM34.747 220.549L37.292 218.003L36.906 217.618L34.361 220.163L34.747 220.549ZM39.837 215.458L42.382 212.913L41.997 212.527L39.452 215.072L39.837 215.458ZM44.927 210.368L47.473 207.823L47.088 207.437L44.542 209.982L44.927 210.368ZM50.018 205.277L52.564 202.732L52.178 202.346L49.633 204.892L50.018 205.277ZM55.109 200.187L57.65 197.642L57.27 197.256L54.723 199.801L55.109 200.187ZM60.2 195.096L62.74 192.551L62.36 192.166L59.81 194.711L60.2 195.096ZM65.29 190.006L67.84 187.461L67.45 187.075L64.9 189.621L65.29 190.006ZM70.38 184.916L72.93 182.37L72.54 181.985L70 184.53L70.38 184.916ZM75.47 179.825L78.02 177.28L77.63 176.894L75.09 179.44L75.47 179.825ZM80.56 174.735L83.11 172.19L82.72 171.804L80.18 174.349L80.56 174.735ZM85.65 169.645L88.2 167.099L87.8101 166.713L85.27 169.259L85.65 169.645ZM90.74 164.554L93.29 162.009L92.9 161.623L90.36 164.168L90.74 164.554ZM95.83 159.463L98.38 156.918L97.99 156.533L95.45 159.078L95.83 159.463ZM100.92 154.373L103.47 151.828L103.08 151.442L100.54 153.988L100.92 154.373ZM106.01 149.282L108.56 146.737L108.17 146.352L105.63 148.897L106.01 149.282ZM111.1 144.192L113.65 141.647L113.26 141.262L110.72 143.807L111.1 144.192ZM116.2 139.102L118.74 136.557L118.36 136.171L115.81 138.716L116.2 139.102ZM121.29 134.012L123.83 131.466L123.45 131.08L120.9 133.626L121.29 134.012ZM126.38 128.921L128.92 126.376L128.54 125.99L125.99 128.535L126.38 128.921ZM131.47 123.831L134.01 121.285L133.63 120.9L131.08 123.445L131.47 123.831ZM136.56 118.74L139.1 116.195L138.72 115.809L136.17 118.355L136.56 118.74ZM141.65 113.649L144.19 111.104L143.81 110.719L141.26 113.264L141.65 113.649ZM146.74 108.559L149.28 106.014L148.9 105.629L146.35 108.174L146.74 108.559ZM151.83 103.469L154.37 100.924L153.99 100.538L151.44 103.083L151.83 103.469ZM156.92 98.378L159.47 95.833L159.08 95.447L156.53 97.993L156.92 98.378ZM162.01 93.288L164.56 90.743L164.17 90.357L161.63 92.902L162.01 93.288ZM167.1 88.198L169.65 85.652L169.26 85.267L166.72 87.812L167.1 88.198ZM172.19 83.107L174.74 80.562L174.35 80.176L171.81 82.721L172.19 83.107ZM177.28 78.016L179.83 75.471L179.44 75.086L176.9 77.631L177.28 78.016ZM182.37 72.926L184.92 70.381L184.53 69.996L181.99 72.541L182.37 72.926ZM187.46 67.836L190.01 65.291L189.62 64.905L187.08 67.45L187.46 67.836ZM192.55 62.745L195.1 60.2L194.71 59.815L192.17 62.36L192.55 62.745ZM197.64 57.655L200.19 55.11L199.8 54.724L197.26 57.269L197.64 57.655ZM202.74 52.565L205.28 50.019L204.9 49.634L202.35 52.179L202.74 52.565ZM207.83 47.474L210.37 44.929L209.99 44.543L207.44 47.088L207.83 47.474ZM212.92 42.384L215.46 39.838L215.08 39.453L212.53 41.998L212.92 42.384ZM218.01 37.293L220.55 34.748L220.17 34.363L217.62 36.908L218.01 37.293ZM223.1 32.203L225.64 29.658L225.26 29.272L222.71 31.817L223.1 32.203ZM228.19 27.112L230.73 24.567L230.35 24.182L227.8 26.727L228.19 27.112ZM233.28 22.022L235.82 19.477L235.44 19.091L232.89 21.636L233.28 22.022ZM238.37 16.932L240.91 14.386L240.53 14.001L237.98 16.546L238.37 16.932ZM243.46 11.841L246 9.296L245.62 8.91L243.07 11.456L243.46 11.841ZM248.55 6.751L251.1 4.206L250.71 3.82L248.16 6.365L248.55 6.751ZM253.64 1.66L254.91 0.388L254.53 0.0019989L253.26 1.275L253.64 1.66Z" fill="#8A8A8A"/>
</svg>
